<svg xmlns="http://www.w3.org/2000/svg" width="26" height="26"><path d="M10 .188A9.81 9.81 0 0 0 .187 10 9.81 9.81 0 0 0 10 19.813a9.77 9.77 0 0 0 6.063-2.125l.875.875a1.843 1.843 0 0 0 .343 2.156l4.594 4.625a1.837 1.837 0 0 0 2.594 0l.875-.875a1.837 1.837 0 0 0 0-2.594l-4.625-4.594a1.819 1.819 0 0 0-2.157-.312l-.875-.875A9.81 9.81 0 0 0 10 .188ZM10 2a8 8 0 1 1 0 16 8 8 0 0 1 0-16ZM4.937 7.469a5.457 5.457 0 0 0-.812 2.875 5.46 5.46 0 0 0 5.469 5.469 5.532 5.532 0 0 0 3.156-1 6.799 6.799 0 0 1-.75.03 7.045 7.045 0 0 1-7.063-7.062c0-.105-.003-.207 0-.312Z"/></svg>